# xmcd
#
# Track frame offsets:
#	150
#	19004
#	34574
#	51416
#	66141
#	85312
#	106297
#	119404
#	133362
#	150995
#	166669
#	182864
#	196988
#	214452
#	231670
#	248004
#	264211
#	281127
#	295832
#	314896
#	328932
#
# Disc length: 4629 seconds
#
# Revision: 1
# Processed by: cddbd v1.5.2PL0 Copyright (c) Steve Scherf et al.
# Submitted via: audiograbber 1.83.01
#
DISCID=42121315
DTITLE=Various Artist - Nu Country Traxx  Vol. 102
DYEAR=2007
DGENRE=
TTITLE0=Don't Blink  - Kenny Chesney
TTITLE1=Red Umbrella - Faith Hill
TTITLE2=Cleaning This Gun (Come On In Boy) - Rodney Atkins
TTITLE3=You Don't Have To Go Home - Gretchen Wilson
TTITLE4=For These Times - Martina McBride
TTITLE5=Stay - Sugarland
TTITLE6=Love Is A Drug - Jypsi
TTITLE7=Its Good To Be Us - Bucky Covington
TTITLE8=Everybody - Keith Urban
TTITLE9=Back There All The Time - The Drew Davis Band
TTITLE10=Happy Endings - Lee Brice
TTITLE11=Walk of Life - Shooter Jennings
TTITLE12=Stealing Cinderella - Chuck Wicks
TTITLE13=Love Don't Live Here - Lady Antebellum
TTITLE14=Gitarzan - Cledus T. Judd ft. Heidi Newfield
TTITLE15=Girl Next Door - Cole Deggs and The Lonesome
TTITLE16=The Beach - Lance Miller
TTITLE17=What's Up With That - Veronica Bellestrini
TTITLE18=Devil And The Cross - Halfway To Hazard
TTITLE19=Takin' Off This  Pain - Ashton Shepherd
TTITLE20=I Believe You - Cross Canadian Ragweed
EXTD=
EXTT0=
EXTT1=
EXTT2=
EXTT3=
EXTT4=
EXTT5=
EXTT6=
EXTT7=
EXTT8=
EXTT9=
EXTT10=
EXTT11=
EXTT12=
EXTT13=
EXTT14=
EXTT15=
EXTT16=
EXTT17=
EXTT18=
EXTT19=
EXTT20=
PLAYORDER=
